# xmcd CD database file
#
# Track frame offsets:
#	150
#	14685
#	35972
#	56500
#	72160
#	85220
#	107852
#	119457
#	131597
#
# Disc length: 1992 seconds
#
# Revision: 0
# Processed by: cddbd v1.5.1PL0 Copyright (c) Steve Scherf et al.
# Submitted via: cdripper 1.0.7
#
DISCID=8207c609
DTITLE=Carl Parna and the Blue Persuasion - Carl Parna and the Blue Persuasion
DYEAR=1997
DGENRE=Blues
TTITLE0=troubleshooter
TTITLE1=sweet home Chicago
TTITLE2=come dancing
TTITLE3=don't you know
TTITLE4=more than you think
TTITLE5=funkadelic
TTITLE6=cold shivers
TTITLE7=noisy blues
TTITLE8=scuttle bug boogie
EXTD=YEAR: 1997
EXTT0=
EXTT1=
EXTT2=
EXTT3=
EXTT4=
EXTT5=
EXTT6=
EXTT7=
EXTT8=
PLAYORDER=
